<?xml version="1.0" encoding="UTF-8"?>
<svg version="1.1" xmlns="http://www.w3.org/2000/svg" width="132" height="173">
<path d="M0 0 C2.30440013 4.29456388 3.78184562 8.31479085 5 13 C5.66 12.01 6.32 11.02 7 10 C7.99387334 8.66209359 8.9926892 7.32781878 10 6 C11.98 6.66 13.96 7.32 16 8 C15.44894091 11.9492568 14.61064629 15.34920174 13 19 C11.865625 18.979375 10.73125 18.95875 9.5625 18.9375 C6.18424326 18.58422523 6.18424326 18.58422523 5 20 C6.24716797 20.03867187 6.24716797 20.03867187 7.51953125 20.078125 C9.14955078 20.16320313 9.14955078 20.16320313 10.8125 20.25 C11.89144531 20.29640625 12.97039063 20.3428125 14.08203125 20.390625 C17 21 17 21 18.84375 22.7890625 C20.74989589 26.43392255 20.78566291 29.94650735 21 34 C21.06445312 34.88042969 21.12890625 35.76085938 21.1953125 36.66796875 C21.48417308 43.18658922 21.48417308 43.18658922 19.4375 46.625 C16.11733001 48.4979164 13.74868276 48.41652031 10 48 C9.34 47.34 8.68 46.68 8 46 C6.35 45.67 4.7 45.34 3 45 C3 49.95 3 54.9 3 60 C14.88 59.67 26.76 59.34 39 59 C39.28729365 53.43668717 39.28729365 53.43668717 39.56811523 47.87304688 C40.4006364 32.34203891 40.4006364 32.34203891 43 29 C48.3358188 25.5449084 52.98986477 25.5758709 59.125 25.6875 C60.01832031 25.68427734 60.91164063 25.68105469 61.83203125 25.67773438 C69.34921749 25.73953486 69.34921749 25.73953486 73 28 C79.19061074 41.93649806 76.55146654 64.74630015 74.6875 79.25 C74.56955078 80.27351563 74.45160156 81.29703125 74.33007812 82.3515625 C72.62329875 95.97078667 72.62329875 95.97078667 68.30859375 100.953125 C57.59960651 108.37563808 47.76275985 109.78449906 35 111 C35 120.24 35 129.48 35 139 C37.31 139.66 39.62 140.32 42 141 C42.125 146.75 42.125 146.75 41 149 C36.17619198 149.0246519 31.35242033 149.04283693 26.52856445 149.05493164 C24.88630536 149.05997174 23.24405077 149.06680378 21.60180664 149.07543945 C19.24624521 149.08751926 16.89074291 149.09323139 14.53515625 149.09765625 C13.79660904 149.10281754 13.05806183 149.10797882 12.2971344 149.11329651 C10.53101912 149.1134925 8.76502854 149.06194719 7 149 C6 148 6 148 5.875 144.5 C6 141 6 141 7 140 C9.97 140 12.94 140 16 140 C16 130.1 16 120.2 16 110 C13.2775 109.896875 10.555 109.79375 7.75 109.6875 C-3.07796849 109.15608398 -14.33612055 108.02025678 -22.75 100.5625 C-31.28636023 90.84053418 -28.32675646 73.68513122 -28.4050293 61.63427734 C-28.42670856 59.12437261 -28.4609264 56.61454543 -28.50756836 54.10498047 C-28.57448551 50.46287735 -28.60200272 46.82231803 -28.62109375 43.1796875 C-28.64892441 42.06286591 -28.67675507 40.94604431 -28.70542908 39.79537964 C-28.68877813 33.48463899 -28.06860744 29.78744147 -23.58363342 25.20071411 C-20.18824111 22.62632069 -16.41727219 22.72198916 -12.3125 22.4375 C-10.54326172 22.31181641 -10.54326172 22.31181641 -8.73828125 22.18359375 C-7.83464844 22.12300781 -6.93101563 22.06242187 -6 22 C-6.33 22 -6.66 22 -7 22 C-11.12901543 21.71847622 -12.72436188 21.24567745 -15.875 18.4375 C-16.57625 17.633125 -17.2775 16.82875 -18 16 C-16.55214724 11.29447853 -16.55214724 11.29447853 -14.125 10 C-12 10 -12 10 -8 13 C-8.33 9.37 -8.66 5.74 -9 2 C-5.23312136 0.11656068 -3.97041037 -0.22057835 0 0 Z M0 21 C4 22 4 22 4 22 Z M-1 34 C3 35 3 35 3 35 Z M23 110 C23 119.9 23 129.8 23 140 C24.65 139.67 26.3 139.34 28 139 C28 129.43 28 119.86 28 110 C26.35 110 24.7 110 23 110 Z " fill="#FD526F" transform="translate(28,24)"/>
<path d="M0 0 C0.66 0.33 1.32 0.66 2 1 C1.67 1.66 1.34 2.32 1 3 C0.78208121 6.19614232 0.84280101 8.57045215 1.94921875 11.59375 C3.29825086 15.96682064 3.62771471 20.2045577 4 24.75 C4.55747871 30.96673228 5.17883216 37.0406515 6.6328125 43.125 C7 45 7 45 7 49 C7.66 49 8.32 49 9 49 C9.33 47.68 9.66 46.36 10 45 C10.3351658 47.12471175 10.66807829 49.24977905 11 51.375 C11.185625 52.55835938 11.37125 53.74171875 11.5625 54.9609375 C12 58 12 58 12 60 C13.9296875 60.47395833 15.859375 60.94791667 17.7890625 61.421875 C19.69163372 61.91936712 21.56850697 62.51332956 23.4375 63.125 C27.10051871 64.02468881 30.14194288 64.0960376 33.87890625 64.0078125 C36.66730527 63.99754215 39.26253948 64.48672615 42 65 C48.35461843 65.91132125 54.58535354 66.12052572 61 66 C61 66.66 61 67.32 61 68 C65.25053264 67.89011864 69.50018035 67.75948796 73.75 67.625 C74.9565625 67.5940625 76.163125 67.563125 77.40625 67.53125 C78.56640625 67.49257812 79.7265625 67.45390625 80.921875 67.4140625 C82.52434082 67.36693115 82.52434082 67.36693115 84.15917969 67.31884766 C86.99916398 67.00009383 88.68750672 66.66725449 91 65 C91.91166887 63.17647595 91.91166887 63.17647595 92.265625 60.984375 C92.43360596 60.15615234 92.60158691 59.32792969 92.7746582 58.47460938 C92.931521 57.57548828 93.08838379 56.67636719 93.25 55.75 C93.41910889 54.81994141 93.58821777 53.88988281 93.76245117 52.93164062 C96.4613406 36.6592856 95.84009888 19.22913646 93 3 C95 4 95 4 95.59765625 5.6875 C98.84604362 21.84754474 98.77967946 38.97055384 96.6875 55.25 C96.56955078 56.27351563 96.45160156 57.29703125 96.33007812 58.3515625 C94.62329875 71.97078667 94.62329875 71.97078667 90.30859375 76.953125 C79.59960651 84.37563808 69.76275985 85.78449906 57 87 C57 96.24 57 105.48 57 115 C59.31 115.66 61.62 116.32 64 117 C64.125 122.75 64.125 122.75 63 125 C58.17619198 125.0246519 53.35242033 125.04283693 48.52856445 125.05493164 C46.88630536 125.05997174 45.24405077 125.06680378 43.60180664 125.07543945 C41.24624521 125.08751926 38.89074291 125.09323139 36.53515625 125.09765625 C35.79660904 125.10281754 35.05806183 125.10797882 34.2971344 125.11329651 C32.53101912 125.1134925 30.76502854 125.06194719 29 125 C28 124 28 124 27.875 120.5 C28 117 28 117 29 116 C31.97 116 34.94 116 38 116 C38 106.1 38 96.2 38 86 C35.2775 85.896875 32.555 85.79375 29.75 85.6875 C18.92203151 85.15608398 7.66387945 84.02025678 -0.75 76.5625 C-9.28636023 66.84053418 -6.32675646 49.68513122 -6.4050293 37.63427734 C-6.42670856 35.12437261 -6.4609264 32.61454543 -6.50756836 30.10498047 C-6.57448551 26.46287735 -6.60200272 22.82231803 -6.62109375 19.1796875 C-6.64892441 18.06286591 -6.67675507 16.94604431 -6.70542908 15.79537964 C-6.69124118 10.41814239 -6.53095873 6.93251151 -2.96118164 2.73876953 C-2.00051172 1.79811521 -1.02209227 0.87352427 0 0 Z M45 86 C45 95.9 45 105.8 45 116 C46.65 115.67 48.3 115.34 50 115 C50 105.43 50 95.86 50 86 C48.35 86 46.7 86 45 86 Z " fill="#540414" transform="translate(6,48)"/>
<path d="M0 0 C0.66 0.33 1.32 0.66 2 1 C1.67 1.66 1.34 2.32 1 3 C0.78208121 6.19614232 0.84280101 8.57045215 1.94921875 11.59375 C3.29825086 15.96682064 3.62771471 20.2045577 4 24.75 C4.55747871 30.96673228 5.17883216 37.0406515 6.6328125 43.125 C7 45 7 45 7 49 C7.66 49 8.32 49 9 49 C9.33 47.68 9.66 46.36 10 45 C10.3351658 47.12471175 10.66807829 49.24977905 11 51.375 C11.2784375 53.15003906 11.2784375 53.15003906 11.5625 54.9609375 C12 58 12 58 12 60 C13.9296875 60.47395833 15.859375 60.94791667 17.7890625 61.421875 C19.69163372 61.91936712 21.56850697 62.51332956 23.4375 63.125 C27.10051871 64.02468881 30.14194288 64.0960376 33.87890625 64.0078125 C36.66730527 63.99754215 39.26253948 64.48672615 42 65 C48.35461843 65.91132125 54.58535354 66.12052572 61 66 C61 66.66 61 67.32 61 68 C65.25053264 67.89011864 69.50018035 67.75948796 73.75 67.625 C74.9565625 67.5940625 76.163125 67.563125 77.40625 67.53125 C78.56640625 67.49257812 79.7265625 67.45390625 80.921875 67.4140625 C82.52434082 67.36693115 82.52434082 67.36693115 84.15917969 67.31884766 C86.99916398 67.00009383 88.68750672 66.66725449 91 65 C91.91166887 63.17647595 91.91166887 63.17647595 92.265625 60.984375 C92.43360596 60.15615234 92.60158691 59.32792969 92.7746582 58.47460938 C92.931521 57.57548828 93.08838379 56.67636719 93.25 55.75 C93.41910889 54.81994141 93.58821777 53.88988281 93.76245117 52.93164062 C96.4613406 36.6592856 95.84009888 19.22913646 93 3 C95 4 95 4 95.59765625 5.6875 C98.84604362 21.84754474 98.77967946 38.97055384 96.6875 55.25 C96.56955078 56.27351563 96.45160156 57.29703125 96.33007812 58.3515625 C95.58714664 64.27977477 94.74310885 69.65187931 92 75 C87.78425143 76.39577446 83.29750793 76.17722811 78.89453125 76.203125 C77.71113411 76.21344254 77.71113411 76.21344254 76.50382996 76.22396851 C73.94000665 76.24119127 71.37637826 76.24743588 68.8125 76.25 C67.94117432 76.25167175 67.06984863 76.25334351 66.17211914 76.25506592 C22.46088923 76.26009112 22.46088923 76.26009112 9 68 C7.3125 65.5 7.3125 65.5 6 63 C5.50097168 62.56139648 5.00194336 62.12279297 4.48779297 61.67089844 C-1.0653748 55.4342919 0.35995096 40.66026562 -0.125 32.75 C-0.21168517 31.40751617 -0.29892183 30.06506783 -0.38671875 28.72265625 C-0.5965405 25.48207586 -0.80086345 22.24125152 -1 19 C-1.66 19 -2.32 19 -3 19 C-3.84663438 13.92019373 -4.42209261 9.14952985 -4 4 C-2 1.5 -2 1.5 0 0 Z " fill="#C60037" transform="translate(6,48)"/>
<path d="M0 0 C4.75482262 0.95632711 9.31565493 3.26983717 12.25 7.1875 C13.21573728 13.42706823 11.11031144 16.91931552 7.75 21.875 C7.29874756 22.5654541 6.84749512 23.2559082 6.38256836 23.96728516 C5.46102308 25.37288917 4.53257508 26.77399264 3.59716797 28.17041016 C2.34697232 30.04230512 1.1237833 31.92848397 -0.08984375 33.82421875 C-5.32285032 41.90273355 -5.32285032 41.90273355 -8.75 44.1875 C-14.48937799 44.1875 -19.66484086 41.07485143 -23.75 37.1875 C-24.79296875 34.9609375 -24.79296875 34.9609375 -24.75 32.1875 C-23.54376221 29.44813282 -21.92193238 27.038031 -20.25 24.5625 C-19.56139893 23.50615356 -19.56139893 23.50615356 -18.85888672 22.4284668 C-17.93201819 21.00740868 -16.99961078 19.58994686 -16.06152344 18.17626953 C-14.28407953 15.48098694 -12.58239524 12.74003385 -10.875 10 C-4.75634043 0.23781702 -4.75634043 0.23781702 0 0 Z " fill="#FA4969" transform="translate(119.75,9.8125)"/>
<path d="M0 0 C2.79224073 -0.08071788 5.58216566 -0.14035408 8.375 -0.1875 C9.1690625 -0.21263672 9.963125 -0.23777344 10.78125 -0.26367188 C12.85586148 -0.29004405 14.93100865 -0.15486462 17 0 C19.47626984 3.71440477 19.38318754 6.71638651 19.484375 11.02734375 C19.5084845 11.81266983 19.53259399 12.59799591 19.55743408 13.40711975 C19.60569966 15.06709898 19.64909809 16.72722584 19.68798828 18.38745117 C19.74969573 20.92498792 19.83279182 23.4612021 19.91796875 25.99804688 C19.96223148 27.6119442 20.00524184 29.22587645 20.046875 30.83984375 C20.07279724 31.5972435 20.09871948 32.35464325 20.12542725 33.13499451 C20.25867746 40.03979184 20.25867746 40.03979184 18 43 C14.8234489 44.05885037 12.40011989 44.20049266 9.0625 44.25 C8.02222656 44.27578125 6.98195313 44.3015625 5.91015625 44.328125 C2.48167345 43.94155781 1.20788364 43.67324553 -1 41 C-1.47390107 38.03204266 -1.69874653 35.41701546 -1.75 32.4375 C-1.79120972 31.1844104 -1.79120972 31.1844104 -1.83325195 29.90600586 C-1.91116149 27.27068474 -1.95776393 24.63611331 -2 22 C-2.02046387 21.14567383 -2.04092773 20.29134766 -2.06201172 19.41113281 C-2.11925398 16.96154232 -2.15816691 14.51257157 -2.1875 12.0625 C-2.20071289 11.31218506 -2.21392578 10.56187012 -2.22753906 9.78881836 C-2.2327098 6.03184697 -2.10426209 3.18550348 0 0 Z " fill="#FC3C62" transform="translate(74,0)"/>
<path d="M0 0 C0.99 0 1.98 0 3 0 C3.88639389 2.65918166 4.17989025 4.48064641 4.31640625 7.23046875 C4.35830078 8.03291016 4.40019531 8.83535156 4.44335938 9.66210938 C4.48267578 10.49548828 4.52199219 11.32886719 4.5625 12.1875 C4.60568359 13.03248047 4.64886719 13.87746094 4.69335938 14.74804688 C4.79931518 16.83184433 4.9001502 18.91590103 5 21 C7.31 21.66 9.62 22.32 12 23 C12.125 28.75 12.125 28.75 11 31 C6.17619198 31.0246519 1.35242033 31.04283693 -3.47143555 31.05493164 C-5.11369464 31.05997174 -6.75594923 31.06680378 -8.39819336 31.07543945 C-10.75375479 31.08751926 -13.10925709 31.09323139 -15.46484375 31.09765625 C-16.20339096 31.10281754 -16.94193817 31.10797882 -17.7028656 31.11329651 C-19.46898088 31.1134925 -21.23497146 31.06194719 -23 31 C-24 30 -24 30 -24.125 26.5 C-24 23 -24 23 -23 22 C-15.70588235 21.76470588 -15.70588235 21.76470588 -12 23 C-12 15.74 -12 8.48 -12 1 C-8 2 -8 2 -7 3 C-6.91348389 4.41570123 -6.89295096 5.835595 -6.90234375 7.25390625 C-6.90556641 8.10791016 -6.90878906 8.96191406 -6.91210938 9.84179688 C-6.92048828 10.73962891 -6.92886719 11.63746094 -6.9375 12.5625 C-6.94201172 13.46419922 -6.94652344 14.36589844 -6.95117188 15.29492188 C-6.96299775 17.53001314 -6.9794778 19.76497437 -7 22 C-4.69 22.33 -2.38 22.66 0 23 C0 15.41 0 7.82 0 0 Z " fill="#F5385E" transform="translate(58,142)"/>
<path d="M0 0 C0.928125 0.0825 1.85625 0.165 2.8125 0.25 C2.8125 0.58 2.8125 0.91 2.8125 1.25 C1.1625 1.58 -0.4875 1.91 -2.1875 2.25 C-2.41797643 9.25792382 -1.56971914 15.57777058 -0.1875 22.4375 C2.09894995 33.92382121 2.09894995 33.92382121 1.8125 39.25 C2.4725 39.25 3.1325 39.25 3.8125 39.25 C6.8125 45.875 6.8125 45.875 6.8125 49.25 C8.86187759 50.34788085 10.48863763 51.2095172 12.8125 51.5 C14.8125 52.25 14.8125 52.25 16.5625 55.1875 C19.22880355 58.81663539 20.60165995 59.1649567 24.83984375 59.94921875 C25.49082031 60.04847656 26.14179687 60.14773437 26.8125 60.25 C27.8025 60.45625 28.7925 60.6625 29.8125 60.875 C30.4725 60.99875 31.1325 61.1225 31.8125 61.25 C31.8125 60.59 31.8125 59.93 31.8125 59.25 C36.8427076 59.77537724 41.83135239 60.35594786 46.8125 61.25 C44.8325 61.745 44.8325 61.745 42.8125 62.25 C42.8125 62.91 42.8125 63.57 42.8125 64.25 C53.3725 64.25 63.9325 64.25 74.8125 64.25 C74.8125 64.58 74.8125 64.91 74.8125 65.25 C73.72308105 65.27505615 72.63366211 65.3001123 71.51123047 65.32592773 C67.45203802 65.42041915 63.39300012 65.52053637 59.33398438 65.62231445 C57.58044054 65.66550598 55.82685892 65.70719155 54.07324219 65.74731445 C51.54610835 65.80540124 49.01916196 65.86898299 46.4921875 65.93359375 C45.71382538 65.95030624 44.93546326 65.96701874 44.1335144 65.98423767 C40.7983314 66.07409266 37.69417906 66.2701597 34.39501953 66.83227539 C31.8125 67.25 31.8125 67.25 29.8125 66.25 C28.20723514 66.30847959 26.60300679 66.39673163 25 66.5 C18.03147401 66.59229836 11.9915078 64.36784797 5.8125 61.25 C4.59556124 58.81612247 4.49290104 56.83161154 4.25 54.125 C4.16621094 53.21492188 4.08242188 52.30484375 3.99609375 51.3671875 C3.93550781 50.66851562 3.87492187 49.96984375 3.8125 49.25 C2.3275 49.745 2.3275 49.745 0.8125 50.25 C-1.425918 41.23663684 -2.7234856 32.42594883 -3.45263672 23.18066406 C-3.8419477 18.56206183 -4.56892792 14.63198782 -6.1875 10.25 C-6.52355677 6.88943229 -6.51033792 4.93154673 -5.0625 1.875 C-3.1875 0.25 -3.1875 0.25 0 0 Z " fill="#FE2F5C" transform="translate(12.1875,46.75)"/>
<path d="M0 0 C2.30440013 4.29456388 3.78184562 8.31479085 5 13 C5.66 12.01 6.32 11.02 7 10 C7.99387334 8.66209359 8.9926892 7.32781878 10 6 C11.98 6.66 13.96 7.32 16 8 C15.44894091 11.9492568 14.61064629 15.34920174 13 19 C11.88625 18.95875 10.7725 18.9175 9.625 18.875 C5.95633975 18.58878141 5.95633975 18.58878141 4 21 C0.52270585 22.69165661 -2.14421297 23.22033069 -6 23 C-5.34 22.34 -4.68 21.68 -4 21 C-5.5159375 21.433125 -5.5159375 21.433125 -7.0625 21.875 C-11.39099862 22.01241265 -11.85775371 21.74627891 -14.9375 19.0625 C-15.97643691 18.06009714 -17.00368079 17.04477242 -18 16 C-16.55214724 11.29447853 -16.55214724 11.29447853 -14.125 10 C-12 10 -12 10 -8 13 C-8.33 9.37 -8.66 5.74 -9 2 C-5.23312136 0.11656068 -3.97041037 -0.22057835 0 0 Z " fill="#BF0E3A" transform="translate(28,24)"/>
<path d="M0 0 C0.92683594 0.01353516 1.85367188 0.02707031 2.80859375 0.04101562 C5.08133998 0.07616119 7.35285847 0.12535868 9.625 0.1875 C9.625 0.5175 9.625 0.8475 9.625 1.1875 C1.705 1.6825 1.705 1.6825 -6.375 2.1875 C-7.56605428 5.23361655 -7.56605428 5.23361655 -7.375 8.8125 C-7.375 9.92625 -7.375 11.04 -7.375 12.1875 C-7.705 12.5175 -8.035 12.8475 -8.375 13.1875 C-8.045 14.1775 -7.715 15.1675 -7.375 16.1875 C-6.64338593 24.10862923 -8.17830543 29.56287985 -11.5625 36.6875 C-14.56860255 39.17530901 -17.57795804 38.43648636 -21.375 38.1875 C-21.705 36.5375 -22.035 34.8875 -22.375 33.1875 C-21.715 33.1875 -21.055 33.1875 -20.375 33.1875 C-20.31441406 31.9809375 -20.25382812 30.774375 -20.19140625 29.53125 C-20.10692182 27.91665876 -20.02227789 26.30207586 -19.9375 24.6875 C-19.89818359 23.89601563 -19.85886719 23.10453125 -19.81835938 22.2890625 C-18.97903245 6.53554172 -18.97903245 6.53554172 -16.375 3.1875 C-10.97413735 -0.34950155 -6.21479734 -0.17287953 0 0 Z " fill="#F4164C" transform="translate(87.375,49.8125)"/>
<path d="M0 0 C0.66 0.33 1.32 0.66 2 1 C1.01 4.63 0.02 8.26 -1 12 C-2.32 12.33 -3.64 12.66 -5 13 C-6.3045656 15.99615946 -6.3045656 15.99615946 -7 19 C-7.66 19 -8.32 19 -9 19 C-10.42266417 22.98345966 -11.52147305 26.78896283 -12 31 C-11.67 31.66 -11.34 32.32 -11 33 C-8.87423218 33.46651207 -8.87423218 33.46651207 -6.4375 33.625 C-5.61121094 33.69976562 -4.78492187 33.77453125 -3.93359375 33.8515625 C-3.29550781 33.90054688 -2.65742187 33.94953125 -2 34 C0.48845208 30.63722692 2.71695419 27.60147234 4.5 23.8125 C6.2357082 20.55804713 8.05193909 19.17594972 11 17 C12.68528688 15.35216394 14.35697047 13.68997323 16 12 C14.37605444 16.63856272 11.93173575 20.56410522 9.3125 24.6875 C8.86551758 25.39140869 8.41853516 26.09531738 7.95800781 26.82055664 C7.05950501 28.2291033 6.15834814 29.63596087 5.25439453 31.04101562 C4.15237105 32.76204257 3.07241343 34.49715727 1.99609375 36.234375 C1.41988281 37.12640625 0.84367187 38.0184375 0.25 38.9375 C-0.23984375 39.70964844 -0.7296875 40.48179688 -1.234375 41.27734375 C-3.74482847 43.72670211 -5.53078719 43.9176062 -9 44 C-11.703125 42.890625 -11.703125 42.890625 -14.25 41.25 C-15.10078125 40.71890625 -15.9515625 40.1878125 -16.828125 39.640625 C-19 38 -19 38 -21 35 C-20.76307688 30.40369141 -18.37706949 27.08019445 -15.875 23.375 C-15.05560847 22.13436621 -14.23660269 20.89347757 -13.41796875 19.65234375 C-13.00981934 19.03858887 -12.60166992 18.42483398 -12.18115234 17.79248047 C-9.92571991 14.36970557 -7.77543983 10.87965544 -5.60546875 7.40234375 C-3.87292264 4.80984774 -1.9788682 2.40812377 0 0 Z " fill="#CA083D" transform="translate(116,10)"/>
<path d="M0 0 C2.68329576 5.18770513 3.33099199 9.88966301 3.796875 15.65625 C3.95213159 17.41935859 4.10841572 19.18237695 4.265625 20.9453125 C4.50971042 23.71128845 4.74817998 26.47716034 4.96875 29.24511719 C5.91901579 46.76647 5.91901579 46.76647 15.125 61 C19.65274727 63.76082151 24.87138057 64.85927633 30 66 C30 66.66 30 67.32 30 68 C44.81016245 69.57751305 59.4927838 70.2009121 74.375 70.1875 C75.17893188 70.1882251 75.98286377 70.1889502 76.81115723 70.18969727 C79.11117398 70.18946222 81.41095941 70.18077345 83.7109375 70.16796875 C84.40365753 70.16677536 85.09637756 70.16558197 85.81008911 70.16435242 C88.81706889 70.13478603 91.1224596 69.95918013 94 69 C93.67 68.01 93.34 67.02 93 66 C94.32 66 95.64 66 97 66 C96.34 67.98 95.68 69.96 95 72 C90.63529299 73.06698778 86.36237972 73.17684656 81.89453125 73.203125 C80.71113411 73.21344254 80.71113411 73.21344254 79.50382996 73.22396851 C76.94000665 73.24119127 74.37637826 73.24743588 71.8125 73.25 C70.94117432 73.25167175 70.06984863 73.25334351 69.17211914 73.25506592 C25.46088923 73.26009112 25.46088923 73.26009112 12 65 C10.3125 62.5 10.3125 62.5 9 60 C8.50097168 59.56139648 8.00194336 59.12279297 7.48779297 58.67089844 C1.9346252 52.4342919 3.35995096 37.66026562 2.875 29.75 C2.78831483 28.40751617 2.70107817 27.06506783 2.61328125 25.72265625 C2.4034595 22.48207586 2.19913655 19.24125152 2 16 C1.34 16 0.68 16 0 16 C-0.84634488 10.92193071 -1.17765417 6.15197086 -1 1 C-0.67 0.67 -0.34 0.34 0 0 Z " fill="#9B0029" transform="translate(3,51)"/>
<path d="M0 0 C0.33 0 0.66 0 1 0 C0.98952637 0.90314941 0.97905273 1.80629883 0.96826172 2.73681641 C0.80461462 19.13259897 0.7913975 35.50141799 1.75 51.875 C1.81171387 53.12619629 1.87342773 54.37739258 1.93701172 55.66650391 C2.0145166 56.82585449 2.09202148 57.98520508 2.171875 59.1796875 C2.2347168 60.18757324 2.29755859 61.19545898 2.36230469 62.23388672 C3.48632545 67.10952041 6.24622451 69.49866819 10.3125 72.203125 C16.4807296 75.04691916 23.3198965 75.19562782 30 75.75 C31.36081289 75.87483035 32.72149267 76.00112086 34.08203125 76.12890625 C37.38700044 76.43361972 40.69256858 76.72353135 44 77 C44.73942151 85.29202456 45.13666545 93.48885402 45.0625 101.8125 C45.05798828 102.80314453 45.05347656 103.79378906 45.04882812 104.81445312 C45.03725686 107.20970461 45.0209623 109.60481558 45 112 C44.01 111.67 43.02 111.34 42 111 C42.33 101.1 42.66 91.2 43 81 C40.2775 80.896875 37.555 80.79375 34.75 80.6875 C23.92203151 80.15608398 12.66387945 79.02025678 4.25 71.5625 C-2.58136525 63.78233402 -1.1503488 53.15495674 -1.1328125 43.37890625 C-1.13376923 42.1977977 -1.13472595 41.01668915 -1.13571167 39.79978943 C-1.13638881 37.31973212 -1.13456719 34.83967299 -1.13037109 32.35961914 C-1.12498268 28.55025311 -1.13034899 24.74100319 -1.13671875 20.93164062 C-1.13605854 18.51822891 -1.13477857 16.10481726 -1.1328125 13.69140625 C-1.13483673 12.54877823 -1.13686096 11.40615021 -1.13894653 10.22889709 C-1.13579437 9.17697678 -1.13264221 8.12505646 -1.12939453 7.04125977 C-1.12859894 6.11354263 -1.12780334 5.1858255 -1.12698364 4.22999573 C-1 2 -1 2 0 0 Z " fill="#5B1925" transform="translate(1,53)"/>
<path d="M0 0 C0.33 3.3 0.66 6.6 1 10 C3.475 10.495 3.475 10.495 6 11 C6.33 9.35 6.66 7.7 7 6 C7.33 6 7.66 6 8 6 C8.61593211 14.96523405 8.61593211 14.96523405 6.4375 18.625 C3.11733001 20.4979164 0.74868276 20.41652031 -3 20 C-3.66 19.34 -4.32 18.68 -5 18 C-6.98821313 17.60235737 -8.98944339 17.26224651 -11 17 C-11 16.01 -11 15.02 -11 14 C-10.01 13.34 -9.02 12.68 -8 12 C-7.27034634 9.43717258 -7.27034634 9.43717258 -7 7 C-7.99 7.66 -8.98 8.32 -10 9 C-10.99 9 -11.98 9 -13 9 C-13.33 8.34 -13.66 7.68 -14 7 C-14.99 6.34 -15.98 5.68 -17 5 C-17 3.68 -17 2.36 -17 1 C-11.26039225 0.16514796 -5.80058027 -0.09063407 0 0 Z " fill="#F21E50" transform="translate(41,52)"/>
<path d="M0 0 C0.66 0.33 1.32 0.66 2 1 C2.37890625 3.07421875 2.37890625 3.07421875 2.5625 5.6875 C2.76504794 8.41156308 3.0064196 11.03468576 3.50390625 13.72265625 C4.28827111 18.90440522 4.32013524 24.12824821 4.4296875 29.36328125 C4.460625 30.18699219 4.4915625 31.01070312 4.5234375 31.859375 C4.54325684 32.60670898 4.56307617 33.35404297 4.58349609 34.12402344 C4.86376 36.40898335 4.86376 36.40898335 8 38 C10.33010909 38.67784992 12.66359824 39.34416793 15 40 C16.35350594 40.62469505 17.69934483 41.2716331 19 42 C15.61494922 44.04242247 12.92471691 44.29778231 9 44.3125 C7.96875 44.32925781 6.9375 44.34601562 5.875 44.36328125 C2.48200177 43.93454642 1.19493344 43.64622817 -1 41 C-1.47390107 38.03204266 -1.69874653 35.41701546 -1.75 32.4375 C-1.79120972 31.1844104 -1.79120972 31.1844104 -1.83325195 29.90600586 C-1.91116149 27.27068474 -1.95776393 24.63611331 -2 22 C-2.02046387 21.14567383 -2.04092773 20.29134766 -2.06201172 19.41113281 C-2.11925398 16.96154232 -2.15816691 14.51257157 -2.1875 12.0625 C-2.20071289 11.31218506 -2.21392578 10.56187012 -2.22753906 9.78881836 C-2.2327098 6.03184697 -2.10426209 3.18550348 0 0 Z " fill="#5E0317" transform="translate(74,0)"/>
<path d="M0 0 C1.64574566 -0.02688151 3.29161413 -0.04634123 4.9375 -0.0625 C5.85402344 -0.07410156 6.77054687 -0.08570312 7.71484375 -0.09765625 C10 0 10 0 11 1 C11.0883967 3.3756852 11.11530305 5.72208674 11.09765625 8.09765625 C11.0962413 8.80651474 11.09482635 9.51537323 11.09336853 10.24571228 C11.08775443 12.51801712 11.07519963 14.79022475 11.0625 17.0625 C11.05748681 18.59960796 11.05292359 20.13671745 11.04882812 21.67382812 C11.03778042 25.44925642 11.02050641 29.22461171 11 33 C9.68 33 8.36 33 7 33 C5.05692272 30.08538409 4.72864948 29.29142543 4.47265625 26.015625 C4.40240234 25.24476562 4.33214844 24.47390625 4.25976562 23.6796875 C4.1295409 22.07573144 4.00188413 20.47156456 3.87695312 18.8671875 C3.5219725 15.01676705 3.06199266 11.7646444 1.43359375 8.234375 C0.05244253 5.11831721 -0.30380039 3.3418043 0 0 Z " fill="#FE5570" transform="translate(80,1)"/>
<path d="M0 0 C2 1 2 1 2.59765625 2.6875 C5.87649335 18.99902573 5.76026849 36.20818047 3.5625 52.625 C3.42779297 53.69878906 3.29308594 54.77257812 3.15429688 55.87890625 C2.14106346 63.71787309 2.14106346 63.71787309 1 66 C-16.01207933 66.20413239 -32.95684399 66.22355262 -49.9375 65.0625 C-51.20932129 64.97564941 -52.48114258 64.88879883 -53.79150391 64.79931641 C-62.56050535 64.14649822 -62.56050535 64.14649822 -66 63 C-65.67 62.34 -65.34 61.68 -65 61 C-60.14504188 60.91629383 -55.78669054 61.12081194 -51 62 C-44.64496396 62.90961831 -38.41498052 63.12053199 -32 63 C-32 63.66 -32 64.32 -32 65 C-27.74946736 64.89011864 -23.49981965 64.75948796 -19.25 64.625 C-18.0434375 64.5940625 -16.836875 64.563125 -15.59375 64.53125 C-14.43359375 64.49257812 -13.2734375 64.45390625 -12.078125 64.4140625 C-11.00981445 64.3826416 -9.94150391 64.3512207 -8.84082031 64.31884766 C-6.00083602 64.00009383 -4.31249328 63.66725449 -2 62 C-1.08833113 60.17647595 -1.08833113 60.17647595 -0.734375 57.984375 C-0.56639404 57.15615234 -0.39841309 56.32792969 -0.2253418 55.47460938 C-0.068479 54.57548828 0.08838379 53.67636719 0.25 52.75 C0.41910889 51.81994141 0.58821777 50.88988281 0.76245117 49.93164062 C3.4613406 33.6592856 2.84009888 16.22913646 0 0 Z " fill="#D51F47" transform="translate(99,51)"/>
<path d="M0 0 C2.53459594 3.80189391 2.55137959 7.17742922 2.8515625 11.60546875 C2.94719986 12.86427605 2.94719986 12.86427605 3.04476929 14.14851379 C3.24641392 16.82763808 3.43584947 19.50746747 3.625 22.1875 C3.75961324 24.00461699 3.89502029 25.82167536 4.03125 27.63867188 C4.36337979 32.09182019 4.68456312 36.54563939 5 41 C5.99 41.33 6.98 41.66 8 42 C8.61875 43.3921875 8.61875 43.3921875 9.25 44.8125 C11.41962165 48.76431085 13.94460379 50.31859602 18 52 C21.3898016 52.83623981 24.78535509 53.28004176 28.25 53.6875 C29.56677734 53.86249023 29.56677734 53.86249023 30.91015625 54.04101562 C33.60417237 54.39009385 36.29987707 54.70205371 39 55 C40.22940308 55.1403064 40.22940308 55.1403064 41.48364258 55.28344727 C50.36216976 56.20009934 59.27081947 56.34064698 68.1875 56.5625 C69.82357626 56.60579788 71.45964409 56.6494153 73.09570312 56.69335938 C77.06371468 56.79925341 81.03181481 56.90083523 85 57 C79.88635323 60.02098285 74.4667146 59.33853605 68.6875 59.3125 C67.46595215 59.30976074 66.2444043 59.30702148 64.98583984 59.30419922 C55.3192093 59.19773044 45.74513898 58.55637925 36.125 57.625 C35.45842377 57.56196686 34.79184753 57.49893372 34.10507202 57.43399048 C27.78507249 56.82365759 21.99370478 56.18167703 16 54 C16 53.34 16 52.68 16 52 C15.236875 51.896875 14.47375 51.79375 13.6875 51.6875 C10.75657342 50.93772808 9.98482838 50.16526733 8 48 C7.01 47.67 6.02 47.34 5 47 C3.01318402 43.23719462 2.56740721 39.56870146 2.1484375 35.37109375 C2.01953125 34.08783203 1.890625 32.80457031 1.7578125 31.48242188 C1.6635498 30.48359985 1.6635498 30.48359985 1.56738281 29.46459961 C1.37779649 27.46696608 1.17338226 25.47075775 0.96875 23.47460938 C0.20108907 15.62175135 -0.18314624 7.8891632 0 0 Z " fill="#7B001E" transform="translate(4,67)"/>
<path d="M0 0 C0.33 0 0.66 0 1 0 C1.24032575 6.84928391 1.2392125 12.54752917 -3.625 17.875 C-6.76688389 22.00905775 -6.50086043 24.99139569 -6 30 C-5.34 30.33 -4.68 30.66 -4 31 C-3.79375 30.34 -3.5875 29.68 -3.375 29 C-1.78434662 25.52948354 0.29232771 22.84289379 2.66015625 19.8671875 C4.18614683 17.93516371 4.18614683 17.93516371 5 15 C6.72717211 12.92739347 8.2346878 11.87148049 10.625 10.5625 C13.143649 9.24425418 13.143649 9.24425418 13.75 6.9375 C13.8325 6.298125 13.915 5.65875 14 5 C14.33 4.34 14.66 3.68 15 3 C16 4 16 4 16.265625 6.30859375 C15.93846007 9.6235443 15.0149821 10.66904202 12.75 13.0625 C11.78900391 14.09890625 11.78900391 14.09890625 10.80859375 15.15625 C9.50419014 16.48600918 8.16779582 17.78464966 6.8125 19.0625 C5.14592336 20.84401296 4.12341604 22.39120944 2.9375 24.5 C2.43089844 25.3971875 2.43089844 25.3971875 1.9140625 26.3125 C1.17022469 27.68573903 0.48258182 29.08930142 -0.1875 30.5 C-2.53488336 32.44266209 -3.57334083 32.16192569 -6.5625 31.9375 C-8.94140625 31.65234375 -8.94140625 31.65234375 -11 31 C-13 28 -13 28 -12.8125 25.1875 C-11.952223 21.81256717 -10.66895028 19.04764834 -9 16 C-8.34 16 -7.68 16 -7 16 C-6.7525 15.030625 -6.505 14.06125 -6.25 13.0625 C-5.8375 12.051875 -5.425 11.04125 -5 10 C-3.68 9.67 -2.36 9.34 -1 9 C-0.67 6.03 -0.34 3.06 0 0 Z " fill="#E90C46" transform="translate(116,13)"/>
<path d="M0 0 C2.68329576 5.18770513 3.33099199 9.88966301 3.796875 15.65625 C3.95213159 17.41935859 4.10841572 19.18237695 4.265625 20.9453125 C4.50971042 23.71128845 4.74817998 26.47716034 4.96875 29.24511719 C5.91901579 46.76647 5.91901579 46.76647 15.125 61 C19.65274727 63.76082151 24.87138057 64.85927633 30 66 C30 66.33 30 66.66 30 67 C22.90675004 67.38690454 16.2375845 66.72638695 10.625 62 C10.08875 61.34 9.5525 60.68 9 60 C8.49452637 59.57170898 7.98905273 59.14341797 7.46826172 58.70214844 C1.96409968 52.32120103 3.36540332 37.74920174 2.875 29.75 C2.78831483 28.40751617 2.70107817 27.06506783 2.61328125 25.72265625 C2.4034595 22.48207586 2.19913655 19.24125152 2 16 C1.34 16 0.68 16 0 16 C-0.84634488 10.92193071 -1.17765417 6.15197086 -1 1 C-0.67 0.67 -0.34 0.34 0 0 Z " fill="#AB012F" transform="translate(3,51)"/>
<path d="M0 0 C0.99 0 1.98 0 3 0 C3.88639389 2.65918166 4.17989025 4.48064641 4.31640625 7.23046875 C4.37924805 8.43413086 4.37924805 8.43413086 4.44335938 9.66210938 C4.48267578 10.49548828 4.52199219 11.32886719 4.5625 12.1875 C4.60568359 13.03248047 4.64886719 13.87746094 4.69335938 14.74804688 C4.79931518 16.83184433 4.9001502 18.91590103 5 21 C6.65 21.33 8.3 21.66 10 22 C10 23.32 10 24.64 10 26 C6.68751813 26.02888146 3.37506833 26.04675799 0.0625 26.0625 C-0.88302734 26.07087891 -1.82855469 26.07925781 -2.80273438 26.08789062 C-4.15141602 26.09272461 -4.15141602 26.09272461 -5.52734375 26.09765625 C-6.77632446 26.10551147 -6.77632446 26.10551147 -8.05053711 26.11352539 C-10 26 -10 26 -11 25 C-10.71269945 22.66055264 -10.38063221 20.3260857 -10 18 C-9.34 18.99 -8.68 19.98 -8 21 C-5.36 21.66 -2.72 22.32 0 23 C0 15.41 0 7.82 0 0 Z " fill="#F63D61" transform="translate(58,142)"/>
<path d="M0 0 C2.26954631 3.40431947 2.36549949 5.16524202 2.625 9.1875 C2.69976563 10.27417969 2.77453125 11.36085938 2.8515625 12.48046875 C2.90054687 13.31191406 2.94953125 14.14335938 3 15 C4.11375 15.2475 5.2275 15.495 6.375 15.75 C9.59901716 16.53445712 12.42117472 17.61657939 15.4296875 19.00390625 C21.77241863 21.56734418 27.97228215 21.86839171 34.75 22.1875 C36.67996826 22.29747314 36.67996826 22.29747314 38.64892578 22.40966797 C52.75334162 23.19536102 66.87961597 23.62769405 81 24 C81 24.33 81 24.66 81 25 C75.04501516 25.05014237 69.09015826 25.08606363 63.13500977 25.10986328 C61.11708429 25.11980459 59.09917276 25.13336235 57.08129883 25.15087891 C25.15277754 25.42071975 25.15277754 25.42071975 12.8046875 20.6640625 C10.25877143 19.72725356 7.6818593 19.34382811 5 19 C5 18.34 5 17.68 5 17 C4.37609375 16.91363281 3.7521875 16.82726562 3.109375 16.73828125 C1 16 1 16 -0.046875 14.29296875 C-0.27890625 13.59816406 -0.5109375 12.90335938 -0.75 12.1875 C-0.99234375 11.50042969 -1.2346875 10.81335938 -1.484375 10.10546875 C-2 8 -2 8 -2 4 C-1.34 4 -0.68 4 0 4 C0 2.68 0 1.36 0 0 Z " fill="#E00642" transform="translate(15,93)"/>
<path d="M0 0 C2.90663421 2.41559519 3.5035355 4.24182212 4.0625 7.9375 C4.21847656 8.90945313 4.37445313 9.88140625 4.53515625 10.8828125 C4.68855469 11.91148438 4.84195313 12.94015625 5 14 C6.34576648 23.15795034 6.34576648 23.15795034 9 32 C9.763125 32.144375 10.52625 32.28875 11.3125 32.4375 C14 33 14 33 17 34 C17.33 32.35 17.66 30.7 18 29 C18.33 29 18.66 29 19 29 C19.125 35.75 19.125 35.75 18 38 C5.69230769 35.69230769 5.69230769 35.69230769 3 33 C2.71289062 31.1875 2.71289062 31.1875 2.65625 29 C2.62781006 28.19957275 2.59937012 27.39914551 2.57006836 26.57446289 C2.5469458 25.72489014 2.52382324 24.87531738 2.5 24 C2.2645931 17.82215934 1.90044403 11.93536249 0.40234375 5.91015625 C0 4 0 4 0 0 Z " fill="#E70C45" transform="translate(75,3)"/>
<path d="M0 0 C0.33 0 0.66 0 1 0 C1 1.65 1 3.3 1 5 C1.75095947 4.99476318 2.50191895 4.98952637 3.27563477 4.98413086 C6.70458121 4.96324039 10.13351421 4.95030155 13.5625 4.9375 C14.74392578 4.92912109 15.92535156 4.92074219 17.14257812 4.91210938 C22.86863072 4.89607001 28.36394482 4.9489295 34 6 C34 4.35 34 2.7 34 1 C34.33 1 34.66 1 35 1 C35.125 6.75 35.125 6.75 34 9 C29.17619198 9.0246519 24.35242033 9.04283693 19.52856445 9.05493164 C17.88630536 9.05997174 16.24405077 9.06680378 14.60180664 9.07543945 C12.24624521 9.08751926 9.89074291 9.09323139 7.53515625 9.09765625 C6.79660904 9.10281754 6.05806183 9.10797882 5.2971344 9.11329651 C3.53101912 9.1134925 1.76502854 9.06194719 0 9 C-1 8 -1 8 -1.125 4.5 C-1 1 -1 1 0 0 Z " fill="#7F0A26" transform="translate(35,164)"/>
<path d="M0 0 C0.66 0 1.32 0 2 0 C2.37125 0.7425 2.7425 1.485 3.125 2.25 C5.71422388 6.04752836 8.84735588 7.25832325 13 9 C13.79535156 9.34675781 14.59070313 9.69351563 15.41015625 10.05078125 C19.00210955 11.36728902 22.61063223 11.85213705 26.37890625 12.4375 C28.88800115 12.97596448 30.77632654 13.74427852 33 15 C27.25 16.125 27.25 16.125 25 15 C23.39473514 15.05847959 21.79050679 15.14673163 20.1875 15.25 C13.21897401 15.34229836 7.1790078 13.11784797 1 10 C-0.60725635 6.78548731 -0.05748185 3.56387464 0 0 Z " fill="#F7174D" transform="translate(17,98)"/>
<path d="M0 0 C0.66 0.33 1.32 0.66 2 1 C1.01 4.63 0.02 8.26 -1 12 C-2.32 12.33 -3.64 12.66 -5 13 C-6.3045656 15.99615946 -6.3045656 15.99615946 -7 19 C-7.66 19 -8.32 19 -9 19 C-11.78180437 26.40668268 -11.78180437 26.40668268 -11 34 C-12.65 33.67 -14.3 33.34 -16 33 C-16.6875 31.25 -16.6875 31.25 -17 29 C-16 27.66666667 -15 26.33333333 -14 25 C-13.7525 23.80375 -13.505 22.6075 -13.25 21.375 C-11.99236959 15.69981066 -8.44334994 11.55911354 -5 7 C-4.01678048 5.62789514 -3.03704238 4.25328136 -2.0625 2.875 C-1.381875 1.92625 -0.70125 0.9775 0 0 Z " fill="#C1073A" transform="translate(116,10)"/>
<path d="M0 0 C0.928125 0.0825 1.85625 0.165 2.8125 0.25 C2.8125 0.58 2.8125 0.91 2.8125 1.25 C1.1625 1.58 -0.4875 1.91 -2.1875 2.25 C-2.40172232 9.04983116 -1.61831213 15.10340609 -0.25 21.75 C1.60876263 31.26848097 2.55558477 40.56429586 2.8125 50.25 C2.1525 50.25 1.4925 50.25 0.8125 50.25 C-1.425918 41.23663684 -2.7234856 32.42594883 -3.45263672 23.18066406 C-3.8419477 18.56206183 -4.56892792 14.63198782 -6.1875 10.25 C-6.52355677 6.88943229 -6.51033792 4.93154673 -5.0625 1.875 C-3.1875 0.25 -3.1875 0.25 0 0 Z " fill="#F62153" transform="translate(12.1875,46.75)"/>
<path d="M0 0 C3.38495108 5.44535609 3.67373505 10.67721029 4 17 C-0.31354337 16.13912298 -2.13422493 14.38014495 -5 11 C-6.81821208 7.70990194 -8 4.81729649 -8 1 C-5.07175348 0.02391783 -3.04386724 -0.08226668 0 0 Z " fill="#F34D68" transform="translate(28,24)"/>
<path d="M0 0 C0.33 0 0.66 0 1 0 C1.61593211 8.96523405 1.61593211 8.96523405 -0.5625 12.625 C-3.88266999 14.4979164 -6.25131724 14.41652031 -10 14 C-10.66 13.34 -11.32 12.68 -12 12 C-13.98821313 11.60235737 -15.98944339 11.26224651 -18 11 C-18 10.01 -18 9.02 -18 8 C-14.17254549 6.25314692 -10.87557277 5.65113667 -6.6875 5.375 C-5.61886719 5.30023438 -4.55023438 5.22546875 -3.44921875 5.1484375 C-2.23685547 5.07496094 -2.23685547 5.07496094 -1 5 C-0.67 3.35 -0.34 1.7 0 0 Z " fill="#C3103D" transform="translate(48,58)"/>
<path d="M0 0 C0.59375 1.875 0.59375 1.875 1 4 C0 5.33333333 -1 6.66666667 -2 8 C-1.91154391 10.83059499 -1.08370533 11.90134729 0.75 14.0625 C3.1120824 16.0965154 5.1661969 17.68677418 8 19 C10.74239143 18.78670551 10.74239143 18.78670551 13 18 C12.375 19.9375 12.375 19.9375 11 22 C8.5 23.125 8.5 23.125 5 23 C0.15571776 20.75617602 -4.01142185 18.48286722 -7 14 C-6.69217766 9.99830957 -5.2140644 7.43281521 -2.9375 4.1875 C-2.38964844 3.39730469 -1.84179688 2.60710938 -1.27734375 1.79296875 C-0.64505859 0.90544922 -0.64505859 0.90544922 0 0 Z " fill="#4F151E" transform="translate(102,31)"/>
<path d="M0 0 C4.12186859 6.18280288 3.43931581 12.80010201 3 20 C2.15725491 24.20658353 0.24537625 26.7254123 -2.625 29.9375 C-6.94492353 32.57745327 -10.07492462 32.49250754 -15 32 C-15 30.35 -15 28.7 -15 27 C-14.67 27.99 -14.34 28.98 -14 30 C-8.61188868 29.85450169 -8.61188868 29.85450169 -4.125 27.375 C-0.73401891 20.21626213 0.02005427 12.79425506 -1.625 5.0625 C-2 3 -2 3 0 0 Z " fill="#FE3760" transform="translate(80,58)"/>
<path d="M0 0 C0.33 0 0.66 0 1 0 C1.66 12.87 2.32 25.74 3 39 C8.61 39 14.22 39 20 39 C19.67 39.66 19.34 40.32 19 41 C15.8234489 42.05885037 13.40011989 42.20049266 10.0625 42.25 C9.02222656 42.27578125 7.98195313 42.3015625 6.91015625 42.328125 C3.48167345 41.94155781 2.20788364 41.67324553 0 39 C-0.47388715 36.03212984 -0.69844164 33.41692115 -0.75 30.4375 C-0.77819824 29.60355713 -0.80639648 28.76961426 -0.83544922 27.91040039 C-0.91524256 25.27350308 -0.96223394 22.63781387 -1 20 C-1.01514648 19.13503906 -1.03029297 18.27007813 -1.04589844 17.37890625 C-1.08459806 14.89835471 -1.10981297 12.4183009 -1.125 9.9375 C-1.12983398 9.17042725 -1.13466797 8.40335449 -1.13964844 7.61303711 C-1.1225668 2.24513361 -1.1225668 2.24513361 0 0 Z " fill="#581A24" transform="translate(73,2)"/>
<path d="M0 0 C1.32 0.33 2.64 0.66 4 1 C-6.19784441 8.90530574 -17.25502786 11.54072172 -30 12 C-30 15.3 -30 18.6 -30 22 C-30.66 22 -31.32 22 -32 22 C-32 21.01 -32 20.02 -32 19 C-32.66 18.67 -33.32 18.34 -34 18 C-33.34 18 -32.68 18 -32 18 C-32 14.7 -32 11.4 -32 8 C-30.61941406 7.96132812 -30.61941406 7.96132812 -29.2109375 7.921875 C-18.79577241 7.45520773 -9.92015348 5.30671783 0 2 C0 1.34 0 0.68 0 0 Z " fill="#551A23" transform="translate(93,123)"/>
<path d="M0 0 C0.66 0.33 1.32 0.66 2 1 C1.67 1.66 1.34 2.32 1 3 C0.78208121 6.19614232 0.84280101 8.57045215 1.94921875 11.59375 C3.29821562 15.96670638 3.62814204 20.20459826 4 24.75 C4.55391936 30.9837102 5.17677952 37.04437454 6.73046875 43.125 C7.04802033 45.33405445 6.58581297 46.86594728 6 49 C2.07338569 40.94462303 1.04966697 33.23909368 0.3125 24.375 C0.07992601 21.84109999 -0.15313342 19.30724448 -0.38671875 16.7734375 C-0.48774902 15.59749023 -0.5887793 14.42154297 -0.69287109 13.20996094 C-0.94964549 10.52628069 -1.29682726 7.88958517 -1.70703125 5.2265625 C-1.80371094 4.16179688 -1.90039062 3.09703125 -2 2 C-1.34 1.34 -0.68 0.68 0 0 Z " fill="#D6033E" transform="translate(6,48)"/>
<path d="M0 0 C0.33 0 0.66 0 1 0 C3.0433925 21.23668639 3.0433925 21.23668639 -1 29 C-1.33 29.66 -1.66 30.32 -2 31 C-3.32 30.67 -4.64 30.34 -6 30 C-5.34 30 -4.68 30 -4 30 C-3.93941406 28.7934375 -3.87882812 27.586875 -3.81640625 26.34375 C-3.73192182 24.72915876 -3.64727789 23.11457586 -3.5625 21.5 C-3.52318359 20.70851563 -3.48386719 19.91703125 -3.44335938 19.1015625 C-2.65169971 4.24271953 -2.65169971 4.24271953 0 0 Z " fill="#591420" transform="translate(71,53)"/>
<path d="M0 0 C3 3.625 3 3.625 3 7 C3.66 7 4.32 7 5 7 C5.4485551 15.17367067 5.40744316 20.97563746 1 28 C-0.65 28 -2.3 28 -4 28 C-3.71125 27.48695312 -3.4225 26.97390625 -3.125 26.4453125 C1.04145475 17.85199957 0.36507761 9.30947895 0 0 Z " fill="#C8033A" transform="translate(72,57)"/>
<path d="M0 0 C3.09311175 0.22093655 4.31035215 1.25392449 6.75 3.25 C9 6 9 6 9.3125 8.8125 C9.1578125 9.8953125 9.1578125 9.8953125 9 11 C6.9375 11.875 6.9375 11.875 4 12 C1.40994275 10.26080867 -0.79124879 8.19602066 -3 6 C-1.125 1.125 -1.125 1.125 0 0 Z " fill="#E84362" transform="translate(13,34)"/>
<path d="M0 0 C0 0.66 0 1.32 0 2 C-1.7015625 2.2165625 -1.7015625 2.2165625 -3.4375 2.4375 C-6.80777201 2.61171478 -6.80777201 2.61171478 -8 4 C-8.33086048 9.12833748 -8.07011326 13.21238702 -6.5625 18.125 C-4.48633906 25.00962801 -4.27987653 31.84867221 -4 39 C-4.66 39 -5.32 39 -6 39 C-6.17390259 37.9941687 -6.17390259 37.9941687 -6.35131836 36.96801758 C-6.87937401 33.91606175 -7.40842722 30.86427966 -7.9375 27.8125 C-8.11990234 26.75740234 -8.30230469 25.70230469 -8.49023438 24.61523438 C-8.66748047 23.59365234 -8.84472656 22.57207031 -9.02734375 21.51953125 C-9.18968506 20.58214111 -9.35202637 19.64475098 -9.51928711 18.67895508 C-9.84127992 16.88452789 -10.18669096 15.09415441 -10.5546875 13.30859375 C-11.02373271 10.87696461 -11.09941042 8.66049796 -11.0625 6.1875 C-11.05347656 5.39730469 -11.04445313 4.60710938 -11.03515625 3.79296875 C-11.02355469 3.20128906 -11.01195312 2.60960937 -11 2 C-7.17679443 0.57741188 -4.08718695 -0.24042276 0 0 Z " fill="#FD4366" transform="translate(20,47)"/>
<path d="M0 0 C0.66 0.99 1.32 1.98 2 3 C3.95385067 3.78988145 3.95385067 3.78988145 6.125 4.1875 C8.043125 4.5896875 8.043125 4.5896875 10 5 C10.33 4.01 10.66 3.02 11 2 C11.33 2.66 11.66 3.32 12 4 C13.89533342 4.46523063 13.89533342 4.46523063 16.0625 4.625 C17.361875 4.74875 18.66125 4.8725 20 5 C20 5.99 20 6.98 20 8 C16.68751813 8.02888146 13.37506833 8.04675799 10.0625 8.0625 C9.11697266 8.07087891 8.17144531 8.07925781 7.19726562 8.08789062 C5.84858398 8.09272461 5.84858398 8.09272461 4.47265625 8.09765625 C3.64000244 8.10289307 2.80734863 8.10812988 1.94946289 8.11352539 C0 8 0 8 -1 7 C-0.71269945 4.66055264 -0.38063221 2.3260857 0 0 Z " fill="#FD516D" transform="translate(48,160)"/>
<path d="M0 0 C2.40591111 1.82887714 2.96225709 2.7642507 3.44824219 5.79980469 C3.48079102 6.91258789 3.51333984 8.02537109 3.546875 9.171875 C3.58683594 10.39390625 3.62679687 11.6159375 3.66796875 12.875 C3.69503906 14.15375 3.72210938 15.4325 3.75 16.75 C3.79253906 18.01328125 3.83507812 19.2765625 3.87890625 20.578125 C4.04808577 26.54326957 3.9603389 32.09382219 3 38 C1.35 37.34 -0.3 36.68 -2 36 C-1.34 35.34 -0.68 34.68 0 34 C0.17502995 31.41896694 0.23162279 28.94691837 0.1953125 26.3671875 C0.1924826 25.61535187 0.18965271 24.86351624 0.18673706 24.08889771 C0.17552874 21.68410422 0.15042352 19.27968119 0.125 16.875 C0.11497102 15.24609912 0.10584503 13.61719242 0.09765625 11.98828125 C0.07558735 7.99204444 0.04105351 3.99608506 0 0 Z " fill="#E33758" transform="translate(90,0)"/>
<path d="M0 0 C0 1.32 0 2.64 0 4 C-0.66 4 -1.32 4 -2 4 C-2.33 4.99 -2.66 5.98 -3 7 C-3.99 6.67 -4.98 6.34 -6 6 C-6.66 6.66 -7.32 7.32 -8 8 C-8.99 8 -9.98 8 -11 8 C-11.33 7.34 -11.66 6.68 -12 6 C-12.99 5.34 -13.98 4.68 -15 4 C-14.67 3.01 -14.34 2.02 -14 1 C-4.58997722 -0.14806378 -4.58997722 -0.14806378 0 0 Z " fill="#5E1B28" transform="translate(39,53)"/>
<path d="M0 0 C2.51242417 3.03794555 3.88228534 5.91438973 5.1875 9.625 C5.53167969 10.58664063 5.87585938 11.54828125 6.23046875 12.5390625 C7 15 7 15 7 17 C9.31 17 11.62 17 14 17 C13 19 13 19 10.75 20.125 C7.98386705 21.00513321 5.87951649 21.1645438 3 21 C3.66 20.34 4.32 19.68 5 19 C4.34 18.67 3.68 18.34 3 18 C2.1484375 14.98046875 2.1484375 14.98046875 1.375 11.1875 C1.11460938 9.94355469 0.85421875 8.69960938 0.5859375 7.41796875 C0 4 0 4 0 0 Z " fill="#590D1C" transform="translate(19,26)"/>
<path d="M0 0 C2.80915558 2.56488118 3.925545 4.45213655 4.11352539 8.36010742 C4.10828857 9.26607666 4.10305176 10.1720459 4.09765625 11.10546875 C4.09443359 12.08837891 4.09121094 13.07128906 4.08789062 14.08398438 C4.07951172 15.10814453 4.07113281 16.13230469 4.0625 17.1875 C4.05798828 18.22326172 4.05347656 19.25902344 4.04882812 20.32617188 C4.0370401 22.88417266 4.02058515 25.44205733 4 28 C4.66 28 5.32 28 6 28 C6.45375 28.94875 6.9075 29.8975 7.375 30.875 C8.80238254 34.00313679 8.80238254 34.00313679 11 36 C5.25 35.25 5.25 35.25 3 33 C2.71289062 31.1875 2.71289062 31.1875 2.65625 29 C2.62781006 28.19957275 2.59937012 27.39914551 2.57006836 26.57446289 C2.5469458 25.72489014 2.52382324 24.87531738 2.5 24 C2.2645931 17.82215934 1.90044403 11.93536249 0.40234375 5.91015625 C0 4 0 4 0 0 Z " fill="#CE013A" transform="translate(75,3)"/>
<path d="M0 0 C0.33 0 0.66 0 1 0 C1.24100574 6.86866369 1.17821535 12.50302143 -3.5625 17.9375 C-6.6770314 21.8506292 -6.74616272 24.09247925 -7 29 C-7.99 28.67 -8.98 28.34 -10 28 C-9.125 20.25 -9.125 20.25 -8 18 C-7.34 18 -6.68 18 -6 18 C-5.01 15.03 -4.02 12.06 -3 9 C-2.34 9 -1.68 9 -1 9 C-0.67 6.03 -0.34 3.06 0 0 Z " fill="#FC1D51" transform="translate(116,13)"/>
<path d="M0 0 C3.66509184 6.98803406 3.26807309 14.64042111 3.4296875 22.36328125 C3.460625 23.18699219 3.4915625 24.01070312 3.5234375 24.859375 C3.54325684 25.60670898 3.56307617 26.35404297 3.58349609 27.12402344 C3.86376 29.40898335 3.86376 29.40898335 7 31 C8.9896995 31.39013716 10.99019869 31.73202649 13 32 C13 32.33 13 32.66 13 33 C11.741875 33.04125 10.48375 33.0825 9.1875 33.125 C8.47980469 33.14820313 7.77210937 33.17140625 7.04296875 33.1953125 C5 33 5 33 2 31 C0.8992924 27.6978772 0.79372928 25.05916721 0.68359375 21.58203125 C0.64169922 20.32841797 0.59980469 19.07480469 0.55664062 17.78320312 C0.51732422 16.47287109 0.47800781 15.16253906 0.4375 13.8125 C0.39429008 12.47720022 0.350675 11.14191348 0.30664062 9.80664062 C0.20043498 6.53786703 0.09839003 3.26901667 0 0 Z " fill="#920026" transform="translate(75,7)"/>
<path d="M0 0 C3.06023305 4.59034958 4.05255656 9.11720355 4.9375 14.5 C5.68458609 18.88091285 6.73562874 22.19173924 9 26 C7.68 26 6.36 26 5 26 C0.26529406 18.25229937 -0.34246253 8.90402576 0 0 Z " fill="#FD2656" transform="translate(79,9)"/>
<path d="M0 0 C0.66 0.33 1.32 0.66 2 1 C2.27142948 4.00138365 2.30059873 5.54656876 0.609375 8.09765625 C-0.31101563 9.07025391 -0.31101563 9.07025391 -1.25 10.0625 C-1.85328125 10.71347656 -2.4565625 11.36445313 -3.078125 12.03515625 C-4.35929736 13.34497271 -5.65636135 14.63943139 -6.96875 15.91796875 C-9.23839377 18.24435361 -11.23643777 20.69948785 -13.25 23.25 C-14.30960937 24.58804688 -14.30960937 24.58804688 -15.390625 25.953125 C-15.92171875 26.62859375 -16.4528125 27.3040625 -17 28 C-17.33 27.34 -17.66 26.68 -18 26 C-17.15115234 24.86111328 -17.15115234 24.86111328 -16.28515625 23.69921875 C-15.55167969 22.70535156 -14.81820312 21.71148437 -14.0625 20.6875 C-12.96615234 19.20830078 -12.96615234 19.20830078 -11.84765625 17.69921875 C-9.87469344 15.08228137 -9.87469344 15.08228137 -9 12 C-7.27282789 9.92739347 -5.7653122 8.87148049 -3.375 7.5625 C-0.86501052 6.23777957 -0.86501052 6.23777957 -0.1875 3.9375 C0.03210806 1.9926419 0.03210806 1.9926419 0 0 Z " fill="#F8194F" transform="translate(130,16)"/>
<path d="M0 0 C0.88945313 0.00644531 1.77890625 0.01289062 2.6953125 0.01953125 C3.61570312 0.03628906 4.53609375 0.05304687 5.484375 0.0703125 C6.42023438 0.07933594 7.35609375 0.08835938 8.3203125 0.09765625 C10.62526157 0.12117614 12.9296866 0.15404397 15.234375 0.1953125 C15.234375 0.5253125 15.234375 0.8553125 15.234375 1.1953125 C7.314375 1.6903125 7.314375 1.6903125 -0.765625 2.1953125 C-1.9233756 5.66856431 -1.83429152 8.55598698 -1.765625 12.1953125 C-2.425625 11.8653125 -3.085625 11.5353125 -3.765625 11.1953125 C-4.35918114 8.54670823 -4.50771769 5.90333928 -4.765625 3.1953125 C-5.755625 3.1953125 -6.745625 3.1953125 -7.765625 3.1953125 C-8.425625 4.5153125 -9.085625 5.8353125 -9.765625 7.1953125 C-9.515625 4.8203125 -9.515625 4.8203125 -8.765625 2.1953125 C-5.82054972 0.25577241 -3.47959581 -0.0446102 0 0 Z " fill="#C12C4A" transform="translate(81.765625,49.8046875)"/>
<path d="M0 0 C0.66 0 1.32 0 2 0 C3.2062252 3.61867559 3.10816918 6.92506251 3.0625 10.6875 C3.05798828 11.38939453 3.05347656 12.09128906 3.04882812 12.81445312 C3.03706927 14.54300538 3.01913454 16.27151365 3 18 C0.47788296 15.80685475 -0.50376575 14.31024555 -1 11 C-1.09021304 9.27268559 -1.13010978 7.54216105 -1.125 5.8125 C-1.12757812 4.93207031 -1.13015625 4.05164063 -1.1328125 3.14453125 C-1 1 -1 1 0 0 Z " fill="#F1365B" transform="translate(28,66)"/>
<path d="M0 0 C0.33 0 0.66 0 1 0 C1.33 4.29 1.66 8.58 2 13 C7.61 13 13.22 13 19 13 C18.67 13.66 18.34 14.32 18 15 C14.8234489 16.05885037 12.40011989 16.20049266 9.0625 16.25 C8.02222656 16.27578125 6.98195313 16.3015625 5.91015625 16.328125 C2.5600573 15.95039572 1.18211679 15.58562257 -1 13 C-1.171875 9.86328125 -1.171875 9.86328125 -0.75 6.3125 C-0.62109375 5.13300781 -0.4921875 3.95351563 -0.359375 2.73828125 C-0.24078125 1.83464844 -0.1221875 0.93101563 0 0 Z " fill="#49131C" transform="translate(74,28)"/>
<path d="M0 0 C0.33 0.33 0.66 0.66 1 1 C3.32817964 1.36760731 5.6618385 1.70241581 8 2 C6.9375 3.5 6.9375 3.5 5 5 C1.4375 5.3125 1.4375 5.3125 -2 5 C-2.66 4.34 -3.32 3.68 -4 3 C-5.98821313 2.60235737 -7.98944339 2.26224651 -10 2 C-10 1.34 -10 0.68 -10 0 C-6.423475 -1.23802788 -3.65753437 -0.81278541 0 0 Z " fill="#501A22" transform="translate(40,67)"/>
<path d="M0 0 C0.99 0 1.98 0 3 0 C3.86963087 2.99706695 4.11763099 5.64956526 4.09765625 8.765625 C4.09443359 9.65507813 4.09121094 10.54453125 4.08789062 11.4609375 C4.07951172 12.38132812 4.07113281 13.30171875 4.0625 14.25 C4.05798828 15.18585938 4.05347656 16.12171875 4.04882812 17.0859375 C4.03706918 19.39069041 4.02063426 21.69531227 4 24 C3.67 24 3.34 24 3 24 C3 19.71 3 15.42 3 11 C2.34 11 1.68 11 1 11 C-1.03684712 6.92630576 -1.0257259 4.41062136 0 0 Z " fill="#E60B45" transform="translate(74,53)"/>
<path d="M0 0 C0.33 0 0.66 0 1 0 C1.81898622 3.57350041 2.11811958 6.85659479 2.09765625 10.51953125 C2.09282227 12.0519043 2.09282227 12.0519043 2.08789062 13.61523438 C2.07951172 14.67033203 2.07113281 15.72542969 2.0625 16.8125 C2.05798828 17.88693359 2.05347656 18.96136719 2.04882812 20.06835938 C2.03707729 22.71229683 2.02064787 25.35611952 2 28 C1.01 28 0.02 28 -1 28 C-0.67 18.76 -0.34 9.52 0 0 Z " fill="#890A29" transform="translate(56,137)"/>
<path d="M0 0 C2.97 0.33 5.94 0.66 9 1 C8.67 2.98 8.34 4.96 8 7 C7.67 6.01 7.34 5.02 7 4 C5.35 4 3.7 4 2 4 C2 7.63 2 11.26 2 15 C-0.475 14.01 -0.475 14.01 -3 13 C-2.01 12.34 -1.02 11.68 0 11 C0.36460453 8.33346095 0.36460453 8.33346095 0.1875 5.375 C0.16042969 4.37210938 0.13335937 3.36921875 0.10546875 2.3359375 C0.05326172 1.17964844 0.05326172 1.17964844 0 0 Z " fill="#5A1621" transform="translate(49,130)"/>
<path d="M0 0 C0.33 0 0.66 0 1 0 C1.50804717 4.47829165 2.00497554 8.95775165 2.5 13.4375 C2.64308594 14.69755859 2.78617187 15.95761719 2.93359375 17.25585938 C3.66029548 23.88268709 4.17409324 30.33367958 4 37 C1.3292644 32.01462688 0.85699871 27.91367239 0.68359375 22.265625 C0.64169922 20.97011719 0.59980469 19.67460938 0.55664062 18.33984375 C0.51683329 16.97656524 0.47712094 15.61328394 0.4375 14.25 C0.39427726 12.87108125 0.35066179 11.49217474 0.30664062 10.11328125 C0.20056042 6.7422881 0.0985015 3.37122174 0 0 Z " fill="#5F0218" transform="translate(2,60)"/>
<path d="M0 0 C0.66 0 1.32 0 2 0 C2.33 0.99 2.66 1.98 3 3 C12.57 3.33 22.14 3.66 32 4 C32.33 3.01 32.66 2.02 33 1 C33 2.65 33 4.3 33 6 C22.11 5.67 11.22 5.34 0 5 C0 3.35 0 1.7 0 0 Z " fill="#FA355E" transform="translate(36,164)"/>
<path d="M0 0 C0.66 0.33 1.32 0.66 2 1 C1.67 1.66 1.34 2.32 1 3 C0.69177753 7.52059622 1.52803431 10.75727537 3 15 C4.35032931 21.61661362 4.09095625 28.27934404 4 35 C3.67 35 3.34 35 3 35 C2.89042969 33.73285156 2.78085938 32.46570313 2.66796875 31.16015625 C2.5083687 29.46088517 2.34818093 27.76166922 2.1875 26.0625 C2.11724609 25.23169922 2.04699219 24.40089844 1.97460938 23.54492188 C1.47057208 18.36341844 0.46044548 13.78545095 -1.35498047 8.90185547 C-2.17125104 6.49506223 -2.38095562 4.51430709 -2 2 C-1.34 1.34 -0.68 0.68 0 0 Z " fill="#E90C46" transform="translate(6,48)"/>
<path d="M0 0 C0.66 0.33 1.32 0.66 2 1 C1.67 1.66 1.34 2.32 1 3 C0.34 3 -0.32 3 -1 3 C-1.10441406 3.72574219 -1.20882812 4.45148437 -1.31640625 5.19921875 C-2.06342027 8.25984191 -3.17548648 10.21471478 -4.9375 12.8125 C-5.46214844 13.60269531 -5.98679687 14.39289062 -6.52734375 15.20703125 C-7.01332031 15.79871094 -7.49929687 16.39039062 -8 17 C-8.66 17 -9.32 17 -10 17 C-10.33 18.32 -10.66 19.64 -11 21 C-11.66 21 -12.32 21 -13 21 C-11.60173735 17.17900503 -9.82450795 13.9193224 -7.625 10.5 C-7.03976563 9.5821875 -6.45453125 8.664375 -5.8515625 7.71875 C-4.02104415 5.03090027 -2.06497197 2.51071482 0 0 Z " fill="#7A172B" transform="translate(116,10)"/>
<path d="M0 0 C3.64599311 0.31065326 7.29176234 0.62386424 10.9375 0.9375 C12.46987305 1.06801758 12.46987305 1.06801758 14.03320312 1.20117188 C20.03358814 1.71877697 26.01722953 2.30752083 32 3 C31.67 3.66 31.34 4.32 31 5 C26.95736161 4.72091886 22.91617201 4.42451164 18.875 4.125 C17.73289062 4.04636719 16.59078125 3.96773437 15.4140625 3.88671875 C13.75117188 3.76103516 13.75117188 3.76103516 12.0546875 3.6328125 C11.03874512 3.55949707 10.02280273 3.48618164 8.97607422 3.41064453 C5.79762312 2.97207564 3.00722262 2.10173345 0 1 C0 0.67 0 0.34 0 0 Z " fill="#57111D" transform="translate(13,127)"/>
<path d="M0 0 C4.68738665 0.90723613 9.34193744 1.9547267 14 3 C14 2.34 14 1.68 14 1 C14.99 0.67 15.98 0.34 17 0 C16.10444012 3.40312753 15.41647723 4.72573451 12.4375 6.6875 C7.68344275 7.11968702 5.5269235 5.19845804 1.7578125 2.48046875 C1.17773438 1.99191406 0.59765625 1.50335938 0 1 C0 0.67 0 0.34 0 0 Z " fill="#9B052B" transform="translate(101,44)"/>
<path d="M0 0 C1.32 0 2.64 0 4 0 C3.34 1.98 2.68 3.96 2 6 C-7.57 6 -17.14 6 -27 6 C-27 5.67 -27 5.34 -27 5 C-26.25838623 4.97494385 -25.51677246 4.9498877 -24.75268555 4.92407227 C-21.39744672 4.80813868 -18.04249056 4.68540015 -14.6875 4.5625 C-12.93663086 4.50352539 -12.93663086 4.50352539 -11.15039062 4.44335938 C-10.03212891 4.40146484 -8.91386719 4.35957031 -7.76171875 4.31640625 C-6.73006592 4.27974854 -5.69841309 4.24309082 -4.63549805 4.20532227 C-1.89251742 4.09838758 -1.89251742 4.09838758 1 3 C0.67 2.01 0.34 1.02 0 0 Z " fill="#A1012D" transform="translate(96,117)"/>
<path d="M0 0 C4 1.33333333 8 2.66666667 12 4 C12 4.66 12 5.32 12 6 C12.72445313 6.06058594 13.44890625 6.12117188 14.1953125 6.18359375 C19.17116533 6.61483433 24.08680391 7.07047641 29 8 C29 8.33 29 8.66 29 9 C19.02898396 9.38350062 8.8808622 8.73651783 1 2 C0.67 1.34 0.34 0.68 0 0 Z " fill="#930025" transform="translate(13,113)"/>
<path d="M0 0 C0.99 0.33 1.98 0.66 3 1 C2.34 1 1.68 1 1 1 C2.26974972 5.41522109 2.26974972 5.41522109 5 9 C6.31747324 9.69748583 7.64914193 10.36959957 9 11 C6.9375 11.875 6.9375 11.875 4 12 C1.40994275 10.26080867 -0.79124879 8.19602066 -3 6 C-1.125 1.125 -1.125 1.125 0 0 Z " fill="#6D0A20" transform="translate(13,34)"/>
<path d="M0 0 C3.74755971 4.15511925 3.48304141 7.68365472 3.37109375 13.0703125 C2.8614005 17.09420656 1.66329192 19.00379659 -1 22 C-1.66 21.67 -2.32 21.34 -3 21 C-2.505 20.13375 -2.01 19.2675 -1.5 18.375 C1.04266982 12.6092276 0.23069516 6.16041509 0 0 Z " fill="#940329" transform="translate(72,61)"/>
<path d="M0 0 C0.33 0.66 0.66 1.32 1 2 C0.2590332 3.63232422 0.2590332 3.63232422 -0.94921875 5.5546875 C-1.38556641 6.25207031 -1.82191406 6.94945312 -2.27148438 7.66796875 C-2.97241211 8.76044922 -2.97241211 8.76044922 -3.6875 9.875 C-4.13544922 10.59558594 -4.58339844 11.31617188 -5.04492188 12.05859375 C-7.3973017 15.77720291 -9.69322733 19.04171626 -13 22 C-12.32902328 17.80639551 -10.1441606 14.59665648 -8 11 C-7.34 11 -6.68 11 -6 11 C-5.7525 10.113125 -5.505 9.22625 -5.25 8.3125 C-3.96065232 4.89572865 -2.40019871 2.7202252 0 0 Z " fill="#751A2B" transform="translate(131,22)"/>
<path d="M0 0 C1.52543191 2.78652906 2.35914769 5.1945762 2.8515625 8.328125 C2.98046875 9.12734375 3.109375 9.9265625 3.2421875 10.75 C3.36851563 11.575 3.49484375 12.4 3.625 13.25 C3.7590625 14.09046875 3.893125 14.9309375 4.03125 15.796875 C4.36005591 17.86365501 4.68081969 19.93171161 5 22 C4.01 21.67 3.02 21.34 2 21 C0.65504172 13.90294338 -0.24091535 7.2274605 0 0 Z " fill="#9C0029" transform="translate(7,87)"/>
<path d="M0 0 C2.99381216 4.49071824 3.15984661 7.6905491 3.1875 13 C3.20167969 14.2375 3.21585937 15.475 3.23046875 16.75 C3 20 3 20 1 23 C0.67 15.41 0.34 7.82 0 0 Z " fill="#FF4266" transform="translate(80,58)"/>
<path d="M0 0 C1.65 0.33 3.3 0.66 5 1 C4.67 2.98 4.34 4.96 4 7 C2.35 7.33 0.7 7.66 -1 8 C-1.125 2.25 -1.125 2.25 0 0 Z " fill="#E13C5A" transform="translate(39,31)"/>
<path d="M0 0 C0.33 0 0.66 0 1 0 C1.33 5.28 1.66 10.56 2 16 C1.34 16.33 0.68 16.66 0 17 C-0.66 17.99 -1.32 18.98 -2 20 C-1.85919445 17.22882696 -1.71256882 14.45817359 -1.5625 11.6875 C-1.52318359 10.90181641 -1.48386719 10.11613281 -1.44335938 9.30664062 C-1.40146484 8.54931641 -1.35957031 7.79199219 -1.31640625 7.01171875 C-1.27974854 6.31522217 -1.24309082 5.61872559 -1.20532227 4.90112305 C-1 3 -1 3 0 0 Z " fill="#FE4467" transform="translate(100,57)"/>
<path d="M0 0 C2 2 2 2 2.1953125 5.2578125 C2.16050781 7.17207031 2.16050781 7.17207031 2.125 9.125 C2.10695313 10.40632813 2.08890625 11.68765625 2.0703125 13.0078125 C2.04710937 13.99523438 2.02390625 14.98265625 2 16 C0.35 16.33 -1.3 16.66 -3 17 C-3.33 16.34 -3.66 15.68 -4 15 C-3.01 14.67 -2.02 14.34 -1 14 C-0.67 9.38 -0.34 4.76 0 0 Z " fill="#F03E5F" transform="translate(46,47)"/>
<path d="M0 0 C1.77388086 1.09926403 3.54399684 2.20460502 5.3125 3.3125 C6.29863281 3.92738281 7.28476563 4.54226562 8.30078125 5.17578125 C10.50172035 6.66324661 12.23328988 8.0403386 14 10 C8.22293899 9.71114695 3.98745981 7.06842346 0 3 C0 2.01 0 1.02 0 0 Z " fill="#560113" transform="translate(97,42)"/>
<path d="M0 0 C1.17433594 0.01417969 2.34867188 0.02835938 3.55859375 0.04296875 C5.32396484 0.05263672 5.32396484 0.05263672 7.125 0.0625 C9.99609375 0.23046875 9.99609375 0.23046875 10.99609375 1.23046875 C11.03673207 2.8966399 11.03881475 4.5643497 10.99609375 6.23046875 C10.66609375 5.24046875 10.33609375 4.25046875 9.99609375 3.23046875 C5.04609375 2.90046875 0.09609375 2.57046875 -5.00390625 2.23046875 C-3.00390625 0.23046875 -3.00390625 0.23046875 0 0 Z " fill="#551F28" transform="translate(34.00390625,130.76953125)"/>
<path d="M0 0 C2.42130331 3.63195496 2.21022785 5.38349348 2.125 9.6875 C2.10695313 10.86699219 2.08890625 12.04648438 2.0703125 13.26171875 C2.03550781 14.61716797 2.03550781 14.61716797 2 16 C-0.50515784 13.49484216 -1.05099086 11.38931835 -2 8 C-2 6.68 -2 5.36 -2 4 C-1.34 4 -0.68 4 0 4 C0 2.68 0 1.36 0 0 Z " fill="#E80C46" transform="translate(15,93)"/>
<path d="M0 0 C0.33 0 0.66 0 1 0 C0.67 3.63 0.34 7.26 0 11 C-1.98 11.33 -3.96 11.66 -6 12 C-5.62403791 9.21788056 -5.32681541 7.4120716 -3.5625 5.1875 C-2 4 -2 4 0 4 C0 2.68 0 1.36 0 0 Z " fill="#E7164A" transform="translate(39,53)"/>
<path d="M0 0 C0.66 0 1.32 0 2 0 C1.70703125 1.98567708 1.4140625 3.97135417 1.12109375 5.95703125 C0.86095201 8.2025342 0.86095201 8.2025342 2 11 C0.35 10.67 -1.3 10.34 -3 10 C-3.75 8.375 -3.75 8.375 -4 6 C-2.1875 2.75 -2.1875 2.75 0 0 Z " fill="#C10136" transform="translate(103,33)"/>
<path d="M0 0 C0.33 0 0.66 0 1 0 C1.19054727 5.43059731 0.96288412 9.83451546 -1 15 C-1.99 15.66 -2.98 16.32 -4 17 C-4 14.69 -4 12.38 -4 10 C-3.01 9.67 -2.02 9.34 -1 9 C-0.67 6.03 -0.34 3.06 0 0 Z " fill="#FD2C5A" transform="translate(116,13)"/>
<path d="M0 0 C2.97 0 5.94 0 9 0 C9.33 1.32 9.66 2.64 10 4 C7.03 4 4.06 4 1 4 C0.67 2.68 0.34 1.36 0 0 Z " fill="#FC4768" transform="translate(38,164)"/>
<path d="M0 0 C-0.33 1.32 -0.66 2.64 -1 4 C-1 3.34 -1 2.68 -1 2 C-1.99 2.33 -2.98 2.66 -4 3 C-5.89470816 3.0685495 -7.7916834 3.08480372 -9.6875 3.0625 C-10.68136719 3.05347656 -11.67523437 3.04445312 -12.69921875 3.03515625 C-13.83810547 3.01775391 -13.83810547 3.01775391 -15 3 C-14.67 2.34 -14.34 1.68 -14 1 C-12.109375 0.5859375 -12.109375 0.5859375 -9.75 0.375 C-8.94175781 0.30152344 -8.13351563 0.22804687 -7.30078125 0.15234375 C-4.86004606 -0.0092669 -2.445326 -0.07888148 0 0 Z " fill="#810021" transform="translate(39,53)"/>
<path d="M0 0 C2.29013653 3.4352048 2.17842973 4.985331 2 9 C-0.31 9 -2.62 9 -5 9 C-5.33 7.02 -5.66 5.04 -6 3 C-2.535 4.98 -2.535 4.98 1 7 C0.67 4.69 0.34 2.38 0 0 Z " fill="#C61541" transform="translate(31,34)"/>
<path d="M0 0 C0.66 0 1.32 0 2 0 C0.92598892 2.91517292 0.22189824 4.77810176 -2 7 C-4.68839385 7.26991906 -7.29141936 7.08737357 -10 7 C-10.33 5.68 -10.66 4.36 -11 3 C-10.01 3 -9.02 3 -8 3 C-8 3.66 -8 4.32 -8 5 C-5.05908413 4.81584568 -5.05908413 4.81584568 -2 4 C-0.56362302 2.04836882 -0.56362302 2.04836882 0 0 Z " fill="#F82655" transform="translate(76,81)"/>
<path d="M0 0 C0.33 0.66 0.66 1.32 1 2 C2.89533342 2.46523063 2.89533342 2.46523063 5.0625 2.625 C6.361875 2.74875 7.66125 2.8725 9 3 C9 3.99 9 4.98 9 6 C2.25 6.125 2.25 6.125 0 5 C0 3.35 0 1.7 0 0 Z " fill="#FE667B" transform="translate(59,162)"/>
<path d="M0 0 C5.0302076 0.52537724 10.01885239 1.10594786 15 2 C15 2.33 15 2.66 15 3 C10.38 3 5.76 3 1 3 C0.67 2.01 0.34 1.02 0 0 Z " fill="#FF3C63" transform="translate(44,106)"/>
<path d="M0 0 C-1.98 0.99 -1.98 0.99 -4 2 C-3.67 5.63 -3.34 9.26 -3 13 C-6.07267167 8.90310444 -8 6.13829491 -8 1 C-5.07175348 0.02391783 -3.04386724 -0.08226668 0 0 Z " fill="#C81640" transform="translate(28,24)"/>
<path d="M0 0 C0.57452195 2.21601325 1.05066686 4.35466805 1.375 6.625 C1.81236489 9.3540951 1.81236489 9.3540951 5 11 C2.36 11 -0.28 11 -3 11 C-2.69078116 9.54096742 -2.37751201 8.08279278 -2.0625 6.625 C-1.88847656 5.81289063 -1.71445312 5.00078125 -1.53515625 4.1640625 C-1 2 -1 2 0 0 Z " fill="#4F0918" transform="translate(36,32)"/>
<path d="M0 0 C2.68433048 2.45091043 3.91789741 4.28241384 4.09765625 8.04296875 C4.06510417 10.02864583 4.03255208 12.01432292 4 14 C3.34 14 2.68 14 2 14 C1.66179834 12.4176994 1.32964061 10.83410625 1 9.25 C0.814375 8.36828125 0.62875 7.4865625 0.4375 6.578125 C0 4 0 4 0 0 Z " fill="#DE0841" transform="translate(75,3)"/>
<path d="M0 0 C-5.73230171 2.85288164 -10.59859065 4.53444296 -17 5 C-14.23776722 2.23776722 -11.79293383 2.42143709 -8 2 C-8 1.34 -8 0.68 -8 0 C-4.90645403 -0.99435406 -3.09720845 -0.87840996 0 0 Z " fill="#5A0D1C" transform="translate(93,125)"/>
<path d="M0 0 C5.875 0.875 5.875 0.875 7 2 C9.32817964 2.36760731 11.6618385 2.70241581 14 3 C10.87352105 4.85272826 8.62412276 5.61875267 5 5 C2.1875 2.5 2.1875 2.5 0 0 Z " fill="#5B0316" transform="translate(34,66)"/>
<path d="M0 0 C0.33 0 0.66 0 1 0 C1.125 6.75 1.125 6.75 0 9 C-2.375 8.8125 -2.375 8.8125 -5 8 C-6.3125 5.4375 -6.3125 5.4375 -7 3 C-5.02 3.66 -3.04 4.32 -1 5 C-0.67 3.35 -0.34 1.7 0 0 Z " fill="#B71339" transform="translate(93,32)"/>
<path d="M0 0 C3.96 0 7.92 0 12 0 C12 0.33 12 0.66 12 1 C8.7 1 5.4 1 2 1 C2.33 3.31 2.66 5.62 3 8 C0.9375 6.25 0.9375 6.25 -1 4 C-0.67 2.68 -0.34 1.36 0 0 Z " fill="#F74A68" transform="translate(78,0)"/>
<path d="M0 0 C0.99 0.33 1.98 0.66 3 1 C2.01 1.33 1.02 1.66 0 2 C-0.0825 2.721875 -0.165 3.44375 -0.25 4.1875 C-1.15713831 7.58926868 -2.60010879 9.45466084 -5 12 C-5.66 12 -6.32 12 -7 12 C-5.61735163 9.13132769 -4.07851447 6.43975968 -2.375 3.75 C-1.92898437 3.04359375 -1.48296875 2.3371875 -1.0234375 1.609375 C-0.68570313 1.07828125 -0.34796875 0.5471875 0 0 Z " fill="#FF2F5B" transform="translate(121,26)"/>
<path d="M0 0 C0.433125 0.639375 0.86625 1.27875 1.3125 1.9375 C2.91239177 4.26746003 2.91239177 4.26746003 6 5 C6 5.66 6 6.32 6 7 C3.69 7 1.38 7 -1 7 C-0.67 4.69 -0.34 2.38 0 0 Z " fill="#FE6278" transform="translate(48,160)"/>
<path d="M0 0 C0.6875 1.75 0.6875 1.75 1 4 C0.505 4.639375 0.01 5.27875 -0.5 5.9375 C-2.31930548 7.95072841 -2.31930548 7.95072841 -1.6875 10.75 C-1.460625 11.4925 -1.23375 12.235 -1 13 C-1.99 12.67 -2.98 12.34 -4 12 C-4.50423019 6.70558305 -3.18923033 4.18586481 0 0 Z " fill="#7E122A" transform="translate(102,31)"/>
<path d="M0 0 C2.83022097 3.99560608 1.76210446 7.42737323 1 12 C-1.475 11.01 -1.475 11.01 -4 10 C-3.525625 9.278125 -3.05125 8.55625 -2.5625 7.8125 C-1.05847097 5.10524774 -0.43400818 3.03805725 0 0 Z " fill="#EF2E56" transform="translate(92,26)"/>
<path d="M0 0 C0.66 0.33 1.32 0.66 2 1 C2.3077917 4.13837611 2.27813784 5.59343628 0.46875 8.23828125 C-0.1809375 8.92277344 -0.830625 9.60726563 -1.5 10.3125 C-2.1496875 11.00988281 -2.799375 11.70726562 -3.46875 12.42578125 C-3.9740625 12.94527344 -4.479375 13.46476562 -5 14 C-5.33 13.34 -5.66 12.68 -6 12 C-5.566875 11.55269531 -5.13375 11.10539062 -4.6875 10.64453125 C-1.08447184 6.8972158 -1.08447184 6.8972158 0.375 2.0625 C0.25125 1.381875 0.1275 0.70125 0 0 Z " fill="#DD1B4A" transform="translate(130,16)"/>
<path d="M0 0 C0.99 0 1.98 0 3 0 C3.33 2.64 3.66 5.28 4 8 C3.01 7.67 2.02 7.34 1 7 C0.67 4.69 0.34 2.38 0 0 Z " fill="#F81F52" transform="translate(74,53)"/>
<path d="M0 0 C0.66 0 1.32 0 2 0 C2.33 0.99 2.66 1.98 3 3 C5.97 3.33 8.94 3.66 12 4 C12 4.33 12 4.66 12 5 C8.04 5 4.08 5 0 5 C0 3.35 0 1.7 0 0 Z " fill="#EE2050" transform="translate(36,164)"/>
<path d="M0 0 C1.32 0 2.64 0 4 0 C3.34 1.98 2.68 3.96 2 6 C0.68 6 -0.64 6 -2 6 C-1.67 5.01 -1.34 4.02 -1 3 C-0.34 3 0.32 3 1 3 C0.67 2.01 0.34 1.02 0 0 Z " fill="#8E1C32" transform="translate(96,117)"/>
<path d="M0 0 C-0.66 1.65 -1.32 3.3 -2 5 C-2.66 4.67 -3.32 4.34 -4 4 C-5.9959722 3.32136945 -7.99568551 2.65358081 -10 2 C-10 1.67 -10 1.34 -10 1 C-3.375 0 -3.375 0 0 0 Z " fill="#561320" transform="translate(38,55)"/>
<path d="M0 0 C0.33 0 0.66 0 1 0 C0.67 2.97 0.34 5.94 0 9 C-0.99 9.33 -1.98 9.66 -3 10 C-2.39009109 6.44219804 -1.4216319 3.3171411 0 0 Z " fill="#E50F47" transform="translate(115,13)"/>
<path d="M0 0 C0.33 0.99 0.66 1.98 1 3 C1.66 3 2.32 3 3 3 C3.33 4.98 3.66 6.96 4 9 C3.34 9 2.68 9 2 9 C0.50178941 5.62902617 0 3.79557881 0 0 Z " fill="#6E0019" transform="translate(7,105)"/>
<path d="M0 0 C0.66 0.33 1.32 0.66 2 1 C1.34 3.97 0.68 6.94 0 10 C-2.14915785 6.77626323 -2.38286803 5.73296326 -2 2 C-1.34 1.34 -0.68 0.68 0 0 Z " fill="#CA1444" transform="translate(6,48)"/>
<path d="M0 0 C0.99 0.495 0.99 0.495 2 1 C2 1.66 2 2.32 2 3 C2.61875 3.12375 3.2375 3.2475 3.875 3.375 C6 4 6 4 8 6 C2.25 5.25 2.25 5.25 0 3 C0 2.01 0 1.02 0 0 Z " fill="#B40031" transform="translate(78,33)"/>
</svg>
